<svg xmlns="http://www.w3.org/2000/svg" width="32.25" height="26.728" viewBox="0 0 32.25 26.728">
  <g id="XMLID_449_" transform="translate(0 0)">
    <path id="XMLID_450_" d="M.348,52.976H6.208a.348.348,0,0,0,.336-.255l1.709-6.16h6.634l1.854,6.167a.348.348,0,0,0,.334.248h6.084a.348.348,0,0,0,.348-.348.343.343,0,0,0-.031-.144L15.737,27.531a.348.348,0,0,0-.333-.245H7.988a.348.348,0,0,0-.333.246L.016,52.526a.348.348,0,0,0,.333.45ZM13.864,41.637h-4.6l1.36-4.86c.247-.876.48-1.912.706-2.914q.077-.345.153-.677c.3,1.2.627,2.5.957,3.595Z" transform="translate(-0.001 -26.248)" fill="#fff"/>
    <path id="XMLID_453_" d="M185.136,76.551a.348.348,0,0,0-.348.348V95.032a.348.348,0,0,0,.348.348h5.636a.348.348,0,0,0,.348-.348V76.9a.348.348,0,0,0-.348-.348Z" transform="translate(-159.056 -68.652)" fill="#fff"/>
    <path id="XMLID_454_" d="M187,26.2a3.19,3.19,0,1,0,.037-6.37,3.392,3.392,0,0,0-2.464.958,3.084,3.084,0,0,0-.851,2.246,3.032,3.032,0,0,0,.852,2.206A3.342,3.342,0,0,0,187,26.2Z" transform="translate(-158.134 -19.827)" fill="#fff"/>
  </g>
</svg>
