<svg xmlns="http://www.w3.org/2000/svg" width="787" height="491.994" viewBox="0 0 787 491.994">
  <g id="behance" transform="translate(0 -9.897)">
    <g id="Group_27" data-name="Group 27" transform="translate(0 9.896)">
      <path id="Path_227" data-name="Path 227" d="M178.445,133.8c15.651-11.12,23.581-28.872,23.581-52.751,0-12.983-2.549-24.088-7.721-33.225A55.5,55.5,0,0,0,173.392,27a78.878,78.878,0,0,0-27.039-9.644A154.057,154.057,0,0,0,117.51,14.9H6V149.047H125.246C146.323,149.062,164.225,143.919,178.445,133.8ZM35.812,44.721H117.54a125.615,125.615,0,0,1,23.581,2,50.093,50.093,0,0,1,17.5,6.171,25.9,25.9,0,0,1,9.868,9.823c2.489,4.382,3.741,10.553,3.741,18.349,0,20.615-8.3,26.5-11.03,28.44l-.015.015c-9.212,6.544-20.957,9.733-35.923,9.733H35.812Z" transform="translate(83.435 59.619)" fill="#fff"/>
      <path id="Path_228" data-name="Path 228" d="M343.921,232.871A116.767,116.767,0,0,0,369.976,205.8c12.118-17.976,18.274-40.38,18.274-66.584,0-23.849-4.039-44.27-12.014-60.741a104.17,104.17,0,0,0-35.088-41.065c-14.7-9.972-32.062-17.127-51.634-21.315-19.079-4.174-39.739-6.2-63.156-6.2H0V501.89H232.47a248.653,248.653,0,0,0,63.946-8.273c21.375-5.664,40.588-14.474,57.149-26.219a133.054,133.054,0,0,0,40.887-47.072c10.032-19.035,15.114-41.766,15.114-67.508,0-31.913-7.87-59.7-23.387-82.578C375.61,254.678,361.465,242.187,343.921,232.871Zm24.118,173.607A103.534,103.534,0,0,1,336.274,443.1c-13.609,9.644-29.588,16.948-47.52,21.7a219.114,219.114,0,0,1-56.284,7.259H29.812V39.708H226.359c21.271,0,39.858,1.8,56.851,5.515l.075.03c15.8,3.369,29.633,9.018,41.08,16.784A73.727,73.727,0,0,1,349.421,91.49c5.977,12.372,9.018,28.425,9.018,47.728,0,20.168-4.427,36.951-13.132,49.845-9.078,13.3-22.88,24.416-41.021,33.061L268.9,238.983l37.637,10.9c24.937,7.229,42.914,19.377,54.928,37.1,12.282,18.11,18.26,39.634,18.26,65.839C379.739,373.671,375.8,391.722,368.038,406.479Z" transform="translate(0 -9.896)" fill="#fff"/>
      <path id="Path_229" data-name="Path 229" d="M127.243,26.9H6V190.859H125.246A139.517,139.517,0,0,0,157,187.431c11.284-2.623,21.121-6.916,28.977-12.64a65.307,65.307,0,0,0,21.285-24.967c5.142-10.255,7.647-22.761,7.647-38.278,0-29.513-8.541-51.47-25.519-65.392C173.466,33.365,152.568,26.9,127.243,26.9Zm53.348,109.6A36.136,36.136,0,0,1,168.7,150.48c-4.919,3.577-10.941,6.156-18.424,7.87l-.089.03a108.834,108.834,0,0,1-24.937,2.653H35.812V56.693h91.432c18.349,0,32.986,4.278,43.376,12.61,9.614,7.87,14.488,22.075,14.488,42.228C185.108,122.144,183.6,130.521,180.591,136.5Z" transform="translate(83.435 226.502)" fill="#fff"/>
      <path id="Path_230" data-name="Path 230" d="M214,110.067c-2.34-25.862-10.628-47.236-24.669-63.558-13.683-15.815-36.057-24.535-63.007-24.535-17.052,0-31.675,3.249-43.495,9.659a89.725,89.725,0,0,0-27.9,23.238A85.314,85.314,0,0,0,40.156,84.489a126.854,126.854,0,0,0-4.666,26.07l-.909,15.77h180.9ZM67.836,96.5c.328-1.356.686-2.758,1.088-4.174a54.411,54.411,0,0,1,9.569-19.2A59.917,59.917,0,0,1,97.081,57.822c7.378-4.01,17.216-6.022,29.26-6.022,18.155,0,32.524,5.053,40.424,14.205,6.976,8.094,11.954,18.319,14.921,30.512H67.836Z" transform="translate(480.875 158.058)" fill="#fff"/>
      <path id="Path_231" data-name="Path 231" d="M274.9,261.369c-2.087,6.752-8.511,13.937-18.558,20.794-10.807,7.334-24.058,11.045-39.381,11.045-21.628,0-38.084-5.217-48.891-15.487v-.015c-8.332-7.885-14.4-21.658-16.814-37.19H389.409l.939-13.907a240.531,240.531,0,0,0-6.827-76.958c-6.529-25.042-17.231-47.5-31.779-66.718a161.792,161.792,0,0,0-57.074-47.3c-23.059-11.716-50.247-17.663-80.759-17.663-27.233,0-52.528,4.829-75.214,14.384a181.668,181.668,0,0,0-58.744,39.4c-16.2,16.322-29.036,36.3-38.159,59.385a200.813,200.813,0,0,0-13.311,73.247c0,26.8,4.352,51.842,12.953,74.439A174.32,174.32,0,0,0,78.549,337.97c16.516,16.739,35.8,29.275,59.042,38.323,22.925,8.794,48.623,13.266,76.347,13.266,40.544,0,75.677-9.271,104.34-27.516,29.469-18.438,51.544-49.264,65.615-91.6l6.529-19.6H278.2Zm23.894,19.3h49.234c-11.388,25.653-26.428,44.121-45.686,56.18-23.909,15.2-53.661,22.91-88.436,22.91-24.073,0-46.163-3.8-65.585-11.254-19.184-7.483-35.073-17.768-48.444-31.332-13.281-13.8-23.3-29.841-30.616-48.965-7.289-19.184-10.986-40.663-10.986-63.812a171.049,171.049,0,0,1,11.254-62.366c7.721-19.527,18.051-35.655,31.585-49.293a152.058,152.058,0,0,1,49.159-32.912c18.99-7.989,40.409-12.044,63.648-12.044,25.787,0,48.429,4.844,67.314,14.459a132.208,132.208,0,0,1,46.73,38.651c12.193,16.113,21.181,35.058,26.711,56.269a205.983,205.983,0,0,1,6.469,53.527H120.3V225.6c0,29.5,10.449,57.76,27.248,73.709,16.53,15.726,39.9,23.7,69.431,23.7,21.39,0,40.275-5.441,56.135-16.2C284.8,298.842,293.4,290.093,298.8,280.672Z" transform="translate(396.05 102.421)" fill="#fff"/>
      <path id="Path_232" data-name="Path 232" d="M256.586,11.9H33V86.425H256.586ZM226.775,56.613H62.812V41.708H226.775Z" transform="translate(458.89 17.916)" fill="#fff"/>
    </g>
  </g>
</svg>
