<svg xmlns="http://www.w3.org/2000/svg" width="98.356" height="93.391" viewBox="0 0 98.356 93.391">
  <g id="industrial-robot_3_" data-name="industrial-robot (3)" transform="translate(0)">
    <g id="Group_12" data-name="Group 12" transform="translate(0 0)">
      <g id="Group_10" data-name="Group 10">
        <g id="Group_7" data-name="Group 7" transform="translate(0 15.39)">
          <g id="Group_6" data-name="Group 6">
            <path id="Path_20" data-name="Path 20" d="M78.627,109.867H22.141a6.7,6.7,0,0,1-6.916-6.469v-.009a6.7,6.7,0,0,1,6.916-6.469H78.627Z" transform="translate(-12.998 -94.631)" fill="#ffe5ac"/>
            <path id="Path_21" data-name="Path 21" d="M49.638,127.389,7.829,100.3A8.393,8.393,0,0,1,5.462,88.143v0a9.743,9.743,0,0,1,12.993-2.216l41.81,27.091a8.394,8.394,0,0,1,2.366,12.155v0A9.744,9.744,0,0,1,49.638,127.389Z" transform="translate(-3.805 -84.37)" fill="#fed57a"/>
            <g id="Group_4" data-name="Group 4" transform="translate(5.34 47.479)">
              <g id="Group_3" data-name="Group 3" transform="translate(0 17.062)">
                <path id="Path_22" data-name="Path 22" d="M106.9,450.273H68.234L71.765,438.2h31.6Z" transform="translate(-61.011 -438.2)" fill="#8caabd"/>
                <path id="Path_23" data-name="Path 23" d="M215.73,438.2h-7.916l3.531,12.073h7.916Z" transform="translate(-173.372 -438.2)" fill="#809cad"/>
                <path id="Path_24" data-name="Path 24" d="M82.819,496.777H32.675a1.391,1.391,0,1,0,0,2.777H82.819a1.391,1.391,0,1,0,0-2.777Z" transform="translate(-31.191 -486.092)" fill="#bfd6e6"/>
              </g>
              <path id="Path_25" data-name="Path 25" d="M108.5,344.663h22.963v17.062H108.5Z" transform="translate(-93.421 -344.663)" fill="#fed57a"/>
            </g>
            <path id="Path_26" data-name="Path 26" d="M110.171,245.792,81.806,255.935c-5.516,1.973-11.7-.615-13.8-5.779l0-.006c-2.1-5.159.66-10.936,6.171-12.907L102.539,227.1c5.516-1.973,11.7.615,13.8,5.779l0,.006C118.444,238.043,115.682,243.821,110.171,245.792Z" transform="translate(-54.918 -200.524)" fill="#ffe5ac"/>
            <path id="Path_27" data-name="Path 27" d="M144.156,232.884l0-.006c-2.1-5.163-8.284-7.751-13.8-5.779l-.147.053a10.33,10.33,0,0,1,6.031,5.726l0,.006c2.1,5.159-.66,10.936-6.171,12.907l-28.218,10.091a11.327,11.327,0,0,0,7.769.053l28.365-10.143C143.5,243.82,146.259,238.042,144.156,232.884Z" transform="translate(-82.732 -200.523)" fill="#ffe5ac"/>
            <g id="Group_5" data-name="Group 5" transform="translate(5.219 5.03)">
              <ellipse id="Ellipse_3" data-name="Ellipse 3" cx="5.562" cy="5.21" rx="5.562" ry="5.21" transform="translate(40.158 25.709)" fill="#8caabd"/>
              <ellipse id="Ellipse_4" data-name="Ellipse 4" cx="4.243" cy="3.975" rx="4.243" ry="3.975" fill="#8caabd"/>
            </g>
          </g>
        </g>
        <g id="Group_8" data-name="Group 8" transform="translate(58.688)">
          <path id="Path_28" data-name="Path 28" d="M305.783,27.528a7.2,7.2,0,0,0,9.5,2.165l3.539-2.017,1.217-.693,12.714,4.126a4.571,4.571,0,0,0,3.664-.366,4.141,4.141,0,0,0,1.591-1.6l5.949-10.847a3.925,3.925,0,0,0-1.871-5.443,4.461,4.461,0,0,0-5.813,1.744l-4.238,7.726-10.9-3.545,1.628-10.683,9.168.02a4.276,4.276,0,0,0,4.436-3.894,4.181,4.181,0,0,0-4.311-4.19L319.03,0a4.23,4.23,0,0,0-4.279,3.466l-1.9,12.452-4.769,2.718a6.235,6.235,0,0,0-2.3,8.892Z" transform="translate(-304.77 0)" fill="#8caabd"/>
        </g>
        <g id="Group_9" data-name="Group 9" transform="translate(62.644 0)">
          <path id="Path_29" data-name="Path 29" d="M383.732.029a4.181,4.181,0,0,1,4.311,4.19,4.24,4.24,0,0,1-4.1,3.881l5.6.012a4.276,4.276,0,0,0,4.436-3.894,4.181,4.181,0,0,0-4.311-4.19L376.635,0c-.1,0-.2.006-.306.012Z" transform="translate(-366.331 0)" fill="#809cad"/>
          <path id="Path_30" data-name="Path 30" d="M332.591,141.2l-3.371,1.921-3.539,2.017q-.306.175-.623.316a7.32,7.32,0,0,0,6.56-.316l4.756-2.711Z" transform="translate(-325.058 -115.441)" fill="#809cad"/>
          <path id="Path_31" data-name="Path 31" d="M449.819,68.435a4.544,4.544,0,0,0-4.944.658,3.86,3.86,0,0,1,.878,4.785L439.8,84.726A4.1,4.1,0,0,1,438.6,86.08l1.89.613a4.571,4.571,0,0,0,3.664-.366,4.142,4.142,0,0,0,1.591-1.6l5.949-10.847A3.925,3.925,0,0,0,449.819,68.435Z" transform="translate(-416.455 -55.585)" fill="#809cad"/>
        </g>
      </g>
      <g id="Group_11" data-name="Group 11" transform="translate(64.003 22.85)">
        <path id="Path_32" data-name="Path 32" d="M333.457,128.046a1.389,1.389,0,1,0,0-2.777A1.389,1.389,0,1,0,333.457,128.046Z" transform="translate(-332.023 -125.269)" fill="#fff"/>
      </g>
    </g>
  </g>
</svg>
