<svg id="instagram" xmlns="http://www.w3.org/2000/svg" width="512" height="512" viewBox="0 0 512 512">
  <g id="Group_29" data-name="Group 29">
    <g id="Group_28" data-name="Group 28">
      <path id="Path_233" data-name="Path 233" d="M371.643,0H140.357C62.964,0,0,62.964,0,140.358V371.643C0,449.037,62.964,512,140.357,512H371.643C449.037,512,512,449.037,512,371.643V140.358C512,62.964,449.037,0,371.643,0ZM481.764,371.643A110.245,110.245,0,0,1,371.643,481.764H140.357A110.245,110.245,0,0,1,30.236,371.643V140.358A110.246,110.246,0,0,1,140.357,30.236H371.643A110.245,110.245,0,0,1,481.764,140.358Z" fill="#fff"/>
    </g>
  </g>
  <g id="Group_31" data-name="Group 31">
    <g id="Group_30" data-name="Group 30">
      <path id="Path_234" data-name="Path 234" d="M256,115.57c-77.434,0-140.431,63-140.431,140.431s63,140.431,140.431,140.431,140.432-63,140.432-140.432S333.434,115.57,256,115.57ZM256,366.2A110.2,110.2,0,1,1,366.2,256,110.322,110.322,0,0,1,256,366.2Z" fill="#fff"/>
    </g>
  </g>
  <g id="Group_33" data-name="Group 33">
    <g id="Group_32" data-name="Group 32">
      <path id="Path_235" data-name="Path 235" d="M404.831,64.5A42.667,42.667,0,1,0,447.5,107.169,42.715,42.715,0,0,0,404.831,64.5Zm0,55.1a12.43,12.43,0,1,1,12.43-12.43A12.445,12.445,0,0,1,404.831,119.6Z" fill="#fff"/>
    </g>
  </g>
</svg>
