<svg id="Layer_2" data-name="Layer 2" xmlns="http://www.w3.org/2000/svg" width="40.087" height="28.067" viewBox="0 0 40.087 28.067">
  <g id="Layer_1" data-name="Layer 1" transform="translate(0 0)">
    <path id="Path_2" data-name="Path 2" d="M226.325,1.12h0c-.043.045-.084.09-.125.136Z" transform="translate(-197.91 -0.98)" fill="#fff"/>
    <path id="Path_3" data-name="Path 3" d="M296.748,97.243l-.2.228c.066-.075.131-.151.194-.23Z" transform="translate(-259.462 -85.079)" fill="#fff"/>
    <path id="Path_4" data-name="Path 4" d="M118.513,8.409a6.628,6.628,0,0,1-1.437,3.553c-.063.079-.125.155-.194.23l-9.52,11.023-.013.015-4,4.637A3.769,3.769,0,0,1,98.5,28.4a3.725,3.725,0,0,1-.361-.275L90.979,21.94a3.773,3.773,0,0,1-.39-5.32l3.791-4.385a3.769,3.769,0,0,1,5.237-.458l7.248-8.391c.04-.046.081-.091.125-.136a6.669,6.669,0,0,1,11.526,5.16Z" transform="translate(-78.457 -0.979)" fill="#fff"/>
    <path id="Path_5" data-name="Path 5" d="M202.115,160.92c-.031.04-.065.08-.1.125l-3.788,4.387a1.6,1.6,0,0,1-.118.125Z" transform="translate(-173.333 -140.794)" fill="#fff"/>
    <circle id="Ellipse_2" data-name="Ellipse 2" cx="7.051" cy="7.051" r="7.051" fill="#ffe5ac"/>
  </g>
</svg>
