<svg xmlns="http://www.w3.org/2000/svg" width="59.904" height="89.656" viewBox="0 0 59.904 89.656">
  <g id="plugins_1_" data-name="plugins (1)" transform="translate(0 0)">
    <path id="Path_44" data-name="Path 44" d="M151.446,213.3H113.26c-6,0-10.859-4.548-10.859-10.157V174.08h59.9v29.067C162.3,208.757,157.444,213.3,151.446,213.3Z" transform="translate(-102.401 -144.195)" fill="#ffe5ac"/>
    <g id="Group_15" data-name="Group 15" transform="translate(8.936 0)">
      <path id="Path_45" data-name="Path 45" d="M153.718,10.24h0a5.323,5.323,0,0,0-5.491,5.137V40.125h10.982V15.377A5.323,5.323,0,0,0,153.718,10.24Z" transform="translate(-148.227 -10.24)" fill="#efefef"/>
      <path id="Path_46" data-name="Path 46" d="M312.945,10.24h0a5.323,5.323,0,0,0-5.491,5.137V40.125h10.982V15.377A5.323,5.323,0,0,0,312.945,10.24Z" transform="translate(-276.405 -10.24)" fill="#efefef"/>
    </g>
    <rect id="Rectangle_11" data-name="Rectangle 11" width="26.957" height="9.405" transform="translate(16.473 68.109)" fill="#ffe5ac"/>
    <rect id="Rectangle_12" data-name="Rectangle 12" width="9.984" height="12.141" transform="translate(24.96 77.514)" fill="#d1d5d8"/>
  </g>
</svg>
