<svg xmlns="http://www.w3.org/2000/svg" xmlns:xlink="http://www.w3.org/1999/xlink" width="279.375" height="296.678" viewBox="0 0 279.375 296.678">
  <defs>
    <filter id="Rectangle_31">
      <feOffset input="SourceAlpha"/>
      <feGaussianBlur stdDeviation="17.5" result="blur"/>
      <feFlood result="color"/>
      <feComposite operator="out" in="SourceGraphic" in2="blur"/>
      <feComposite operator="in" in="color"/>
      <feComposite operator="in" in2="SourceGraphic"/>
    </filter>
    <clipPath id="clip-path">
      <path id="Path_218" data-name="Path 218" d="M409.919,55.56H563.785V334.967H284.41v-153.9A125.5,125.5,0,0,1,409.935,55.56Z" transform="translate(-284.41 -55.56)" fill="none"/>
    </clipPath>
  </defs>
  <g id="Group_26" data-name="Group 26" transform="translate(-41.159 -12510.178)">
    <g data-type="innerShadowGroup">
      <rect id="Rectangle_31-2" data-name="Rectangle 31" width="279.375" height="279.375" rx="19" transform="translate(41.159 12510.178)" fill="#0b0a19"/>
      <g transform="matrix(1, 0, 0, 1, 41.16, 12510.18)" filter="url(#Rectangle_31)">
        <rect id="Rectangle_31-3" data-name="Rectangle 31" width="279.375" height="279.375" rx="19" transform="translate(0)" fill="#fff"/>
      </g>
    </g>
    <g id="Group_22" data-name="Group 22" transform="translate(41.159 12510.179)" clip-path="url(#clip-path)">
      <path id="Path_195" data-name="Path 195" d="M327.414,271.469c48.274-4.889,96.662-9.224,145.163-10.659l-.2-38.446A72.476,72.476,0,0,0,422.266,153.8h0l-51.338.261-12.158,7.758a78.6,78.6,0,0,0-35.708,76.6Z" transform="translate(-260.496 6.308)" fill="#fff"/>
      <path id="Path_196" data-name="Path 196" d="M349.18,123.148s5.672,15.4,16.754,21.741c-.212-.9-1.63-28.749-1.63-28.749Z" transform="translate(-243.62 -17.409)" fill="#3e0517"/>
      <path id="Path_197" data-name="Path 197" d="M373.153,79.831a30.263,30.263,0,0,0-8.361,4.743c-23.583,18.465-14.1,59.943,3.26,79.989,9.632,11.1,24.707,17.341,38.821,13.625,20.633-5.427,29.157-27.3,27.168-47.752-1.483-15.238-8.328-30.183-19.655-40.223S387.038,74.795,373.153,79.831Z" transform="translate(-242.657 -41.482)" fill="#f59f9d"/>
      <path id="Path_198" data-name="Path 198" d="M367.446,133.157a15.76,15.76,0,0,1-15.695,1.907,17.113,17.113,0,0,1-9.241-13.038c-.652-5.052,1.173-10.545,5.117-13.185s10.463-1.793,13.152,2.461Z" transform="translate(-247.902 -22.952)" fill="#f59f9d"/>
      <path id="Path_199" data-name="Path 199" d="M388.315,193.035c-10.365.1-24.316-13.967-34.665-14l2.542-64.245,45.21,5.541,1.19,62.779C396.415,183.305,394.476,192.807,388.315,193.035Z" transform="translate(-240.805 -18.259)" fill="#f59f9d"/>
      <path id="Path_200" data-name="Path 200" d="M397.388,155.073v-9.779s-20.111,3.993-36.018-14.244C361.37,130.969,369.6,150.526,397.388,155.073Z" transform="translate(-235.943 -8.019)" fill="#111010"/>
      <path id="Path_201" data-name="Path 201" d="M379.162,115.786l-.163-.114c-1.19-1.076-3.129.538-1.923,1.63,2.249,2.053,5.867-.75,3.553-3.08a2.542,2.542,0,0,0-3.716,3.439c2.135,2.412,5.883-1.271,3.259-3.26s-4.971,2.494-1.809,3.748c1.516.587,2.347-1.793.831-2.379Z" transform="translate(-226.485 -19.026)" fill="#222c44"/>
      <path id="Path_202" data-name="Path 202" d="M398.372,111.966l-.179-.114c-1.173-1.076-3.113.538-1.923,1.63,2.265,2.054,5.883-.75,3.569-3.08a2.542,2.542,0,0,0-3.716,3.439c2.135,2.412,5.883-1.271,3.26-3.26s-4.889,2.494-1.809,3.748c1.516.587,2.347-1.793.831-2.379Z" transform="translate(-214.387 -21.432)" fill="#222c44"/>
      <path id="Path_203" data-name="Path 203" d="M388.239,106.779a76.7,76.7,0,0,0-16.053.864,1.842,1.842,0,0,0,.7,3.6,72,72,0,0,1,15.092-.815,1.83,1.83,0,0,0,.261-3.651Z" transform="translate(-229.972 -23.367)" fill="#222c44"/>
      <path id="Path_204" data-name="Path 204" d="M391.254,106.392a62.549,62.549,0,0,1,13.886-3.586c2.119-.293,2.868,3.162.75,3.455a59.8,59.8,0,0,0-13.038,3.374c-1.939.75-3.537-2.494-1.63-3.26Z" transform="translate(-217.684 -25.817)" fill="#222c44"/>
      <path id="Path_205" data-name="Path 205" d="M353.886,120.981c-2.95,0-5.346-1.858-5.346-4.123a4.254,4.254,0,0,1,3.26-3.8" transform="translate(-244.023 -19.348)" fill="none" stroke="#e37f7e" stroke-linecap="round" stroke-miterlimit="10" stroke-width="1.34"/>
      <path id="Path_206" data-name="Path 206" d="M396.708,161.207c-12.028-.636-36.849-6.812-42.928-46.074L360.3,108.5s21.953,36.23,71.71,13.348c0,0-.489,29.874-23.827,37.876A30.85,30.85,0,0,1,396.708,161.207Z" transform="translate(-240.723 -22.22)" fill="#3e0517"/>
      <path id="Path_207" data-name="Path 207" d="M385.72,124.5l10.642-1.141S392.516,132.878,385.72,124.5Z" transform="translate(-220.608 -12.862)" fill="#fff"/>
      <path id="Path_208" data-name="Path 208" d="M371.093,102.749s25.49-23.681,50.947-6.78c0,0-19.476-27.853-46.872-20.16s-31.585,36.279-29.336,53.685c0,0,8.687-3.667,13.152,2.461l.179,4.612s7.676,5.59,7.448,4.677S383.316,113.62,371.093,102.749Z" transform="translate(-246.057 -43.654)" fill="#3e0517"/>
      <path id="Path_209" data-name="Path 209" d="M363.218,98.987s32.6,9.062,55.705-.228c0,0-9.779-23.094-42.113-17.422S363.218,98.987,363.218,98.987Z" transform="translate(-238.182 -39.891)" fill="#3e0517"/>
      <circle id="Ellipse_10" data-name="Ellipse 10" cx="12.435" cy="12.435" r="12.435" transform="matrix(0.976, -0.22, 0.22, 0.976, 137.898, 85.248)" fill="none" stroke="#fff" stroke-miterlimit="10" stroke-width="0.62"/>
      <line id="Line_4" data-name="Line 4" x1="7.627" y2="1.271" transform="translate(164.02 88.138)" fill="none" stroke="#fff" stroke-miterlimit="10" stroke-width="0.62"/>
      <line id="Line_5" data-name="Line 5" x1="27.233" y1="5.476" transform="translate(112.878 88.301)" fill="none" stroke="#fff" stroke-miterlimit="10" stroke-width="0.62"/>
      <circle id="Ellipse_11" data-name="Ellipse 11" cx="12.435" cy="12.435" r="12.435" transform="matrix(0.384, -0.923, 0.923, 0.384, 168.037, 96.325)" fill="none" stroke="#fff" stroke-miterlimit="10" stroke-width="0.62"/>
      <path id="Path_210" data-name="Path 210" d="M389.62,122.547a16.02,16.02,0,0,1,1.923-2.868,27.916,27.916,0,0,1,2.331-2.477l.375,1.842a9.175,9.175,0,0,1-3.9-3.634,14.032,14.032,0,0,1-1.923-4.629c1.092,1.255,2.119,2.494,3.26,3.6a10.9,10.9,0,0,0,3.455,2.559l1.63.6-1.206,1.255a27.706,27.706,0,0,1-2.461,2.331,16.033,16.033,0,0,1-2.852,1.956.407.407,0,0,1-.538-.179.358.358,0,0,1-.1-.359Z" transform="translate(-218.901 -20.784)" fill="#e37f7e"/>
      <path id="Path_211" data-name="Path 211" d="M389.62,122.547a16.02,16.02,0,0,1,1.923-2.868,27.916,27.916,0,0,1,2.331-2.477l.375,1.842a9.175,9.175,0,0,1-3.9-3.634,14.032,14.032,0,0,1-1.923-4.629c1.092,1.255,2.119,2.494,3.26,3.6a10.9,10.9,0,0,0,3.455,2.559l1.63.6-1.206,1.255a27.706,27.706,0,0,1-2.461,2.331,16.033,16.033,0,0,1-2.852,1.956.407.407,0,0,1-.538-.179.358.358,0,0,1-.1-.359Z" transform="translate(-218.901 -20.784)" fill="#e37f7e"/>
      <path id="Path_212" data-name="Path 212" d="M392.091,162.87l-24.381.978,6.927,16.852,11.506-.456Z" transform="translate(-232.048 12.102)" fill="#7d2d76"/>
      <path id="Path_213" data-name="Path 213" d="M386.5,173.53l-1.027,38.332L374.2,292.1l-7.057-60.644L375,173.986Z" transform="translate(-232.407 18.815)" fill="#7d2d76"/>
      <path id="Path_214" data-name="Path 214" d="M355.9,148l34.4,24.039-14.179,15.907L350.65,158.528Z" transform="translate(-242.792 2.737)" fill="#fff"/>
      <path id="Path_215" data-name="Path 215" d="M374.98,170.7l12.337,11.914L398.432,158.8l-7.383-8.67Z" transform="translate(-227.47 4.079)" fill="#fff"/>
      <path id="Path_216" data-name="Path 216" d="M473.713,290.934s1.63-100.214-36.7-124.514c-8.247-5.232-20.4-8.247-34.078-10.919L390.2,201.508l-22.523,90.86C394.539,290.331,469.084,291,473.713,290.934Z" transform="translate(-231.969 7.379)" fill="#352938"/>
      <path id="Path_217" data-name="Path 217" d="M424.879,286.377,373.867,155.05s-33.541,14.016-40.858,22.344c-24.561,27.918-24.789,104.794-24.789,104.794" transform="translate(-269.415 7.096)" fill="#352938"/>
    </g>
    <path id="Path_219" data-name="Path 219" d="M336.12,230.085s.44-10.74,14-8.149c0,0,6.764,4.384,4.889,22.2a4.368,4.368,0,0,1-4.775,3.553h0a4.482,4.482,0,0,1-4.368-3.488l-1.744-12.4Z" transform="translate(-210.686 12559.143)" fill="#f59f9d"/>
    <path id="Path_220" data-name="Path 220" d="M344.974,222.133a13.576,13.576,0,0,1,11.18.57,12.044,12.044,0,0,1,8.784,1.842,6.324,6.324,0,0,1,4.743.847,6.112,6.112,0,0,1,3.015,5.558c-.081,3.7-.815,10.039-4.4,13.609a3.1,3.1,0,0,1-3.178.75c-.9-.293-1.418-.1-1.923-1.32a4.694,4.694,0,0,1-3.634,2.249,3.748,3.748,0,0,1-3.716-2.9s.652,5.769-6.7,3.944S344.974,222.133,344.974,222.133Z" transform="translate(-205.54 12558.929)" fill="#f59f9d"/>
    <path id="Path_221" data-name="Path 221" d="M401.58,230.085s.44-10.74,14-8.149c0,0,6.764,4.384,4.889,22.2a4.368,4.368,0,0,1-4.775,3.553h0a4.482,4.482,0,0,1-4.368-3.488l-1.744-12.4Z" transform="translate(-169.461 12559.143)" fill="#f59f9d"/>
    <path id="Path_222" data-name="Path 222" d="M410.448,222.133a13.576,13.576,0,0,1,11.18.57,12.044,12.044,0,0,1,8.784,1.842,6.324,6.324,0,0,1,4.743.847,6.112,6.112,0,0,1,3.015,5.558c-.082,3.7-.815,10.039-4.4,13.609a3.1,3.1,0,0,1-3.26.75c-.9-.293-1.418-.1-1.923-1.32a4.694,4.694,0,0,1-3.634,2.249,3.748,3.748,0,0,1-3.716-2.9s.652,5.769-6.7,3.944S410.448,222.133,410.448,222.133Z" transform="translate(-164.33 12558.929)" fill="#f59f9d"/>
    <path id="Path_223" data-name="Path 223" d="M348.56,155l39.848,102.464v14.847" transform="translate(-202.949 12517.323)" fill="none" stroke="#51434b" stroke-miterlimit="10" stroke-width="1"/>
  </g>
</svg>
