<svg xmlns="http://www.w3.org/2000/svg" width="22.149" height="17.236" viewBox="0 0 22.149 17.236">
  <g id="right-arrow" transform="translate(0 0)">
    <g id="Group_16" data-name="Group 16" transform="translate(0 0)">
      <path id="Path_47" data-name="Path 47" d="M21.795,49.159l-8-7.482a1.276,1.276,0,0,0-1.714,0l-.726.679a1.09,1.09,0,0,0-.354.8,1.111,1.111,0,0,0,.354.811l4.666,4.375H1.2A1.147,1.147,0,0,0,0,49.459v.961a1.187,1.187,0,0,0,1.2,1.164H16.075l-4.719,4.4a1.073,1.073,0,0,0,0,1.592l.726.677a1.276,1.276,0,0,0,1.714,0l8-7.482a1.092,1.092,0,0,0,0-1.609Z" transform="translate(0 -41.346)" fill="#ffe5ac"/>
    </g>
  </g>
</svg>
