<svg xmlns="http://www.w3.org/2000/svg" width="511.27" height="416.577" viewBox="0 0 511.27 416.577">
  <g id="twitter" transform="translate(-0.001 -47.348)">
    <g id="Group_34" data-name="Group 34">
      <path id="Path_236" data-name="Path 236" d="M508.342,94.243a11.405,11.405,0,0,0-10.414-2.6l-17.356,6.075a118.907,118.907,0,0,0,21.7-37.315c1.736-4.339.868-7.81-1.736-10.414a9.231,9.231,0,0,0-10.414-1.736c-24.3,10.414-45.125,19.092-62.481,24.3,0,.868-.868,0-1.736,0-13.885-7.81-47.729-25.166-72.027-25.166C292.259,48.25,242.8,100.318,242.8,163.667v3.471c-90.251-17.356-139.715-43.39-193.519-99.8L40.6,58.663,35.393,69.077C5.888,125.484,26.715,176.684,60.559,211.4c-15.62-2.6-26.034-7.81-35.58-15.62-3.471-2.6-7.81-3.471-12.149-.868-3.471,1.736-5.207,6.942-4.339,11.281,12.149,40.786,42.522,73.763,75.5,93.722-15.62,0-28.637-1.736-41.654-10.414-3.471-1.736-8.678-1.736-12.149.868s-5.207,6.942-3.471,11.281c15.62,44.258,45.993,67.688,94.59,73.763-25.166,14.753-58.142,26.9-109.342,27.77a12.355,12.355,0,0,0-11.281,7.81c-1.736,5.207,0,9.546,3.471,13.017,31.241,25.166,100.664,39.919,186.576,39.919,152.732,0,277.7-136.244,277.7-303.729v-2.6c19.092-9.546,34.712-27.77,42.522-52.936A11.409,11.409,0,0,0,508.342,94.243Zm-52.068,49.464-5.207,1.736V160.2c0,157.939-117.153,286.373-260.339,286.373-78.97,0-131.9-13.017-160.542-26.9,59.878-4.339,94.59-23.431,121.492-44.258l21.7-15.62H147.339c-49.464,0-79.837-13.885-97.193-46.861,15.62,5.207,32.108,5.207,50.332,4.339A167.17,167.17,0,0,1,121.3,316.4l2.6-17.356c-32.976-9.546-72.027-39.051-91.119-78.969,17.356,7.81,36.447,9.546,53.8,9.546h26.9L91.8,214c-18.224-13.017-72.027-59.01-45.993-124.963,55.539,54.671,108.475,79.837,203.932,97.193l10.414,1.736v-24.3c0-53.8,41.654-98.061,93.722-98.929,19.959-.868,52.936,17.356,62.481,22.563,5.207,2.6,10.414,3.471,15.62,1.736,13.017-4.339,28.637-10.414,45.993-17.356a138.7,138.7,0,0,1-32.108,36.448c-3.471,2.6-4.339,7.81-2.6,12.149s6.942,6.075,11.281,4.339l33.844-11.281C482.308,124.616,472.762,137.633,456.274,143.707Z" fill="#fff"/>
    </g>
  </g>
</svg>
