<svg id="web-programming_1_" data-name="web-programming (1)" xmlns="http://www.w3.org/2000/svg" width="113.682" height="93.391" viewBox="0 0 113.682 93.391">
  <path id="Path_36" data-name="Path 36" d="M113.682,10.375V25.441H0V10.375C0,4.645,4.966,0,11.091,0h91.5c6.125,0,11.091,4.645,11.091,10.375Zm0,0" transform="translate(0 0)" fill="#ffe5ac"/>
  <g id="Group_14" data-name="Group 14" transform="translate(0 8.837)">
    <path id="Path_37" data-name="Path 37" d="M169.726,34.5a3.938,3.938,0,1,1-4.214,3.917,4.069,4.069,0,0,1,4.214-3.917Zm0,0" transform="translate(-119.62 -34.388)" fill="#e48e66"/>
    <path id="Path_38" data-name="Path 38" d="M113.682,98.09v57.576c0,5.73-4.966,10.375-11.091,10.375h-91.5C4.966,166.04,0,161.4,0,155.665V98.09Zm0,0" transform="translate(0 -81.485)" fill="#e48e66"/>
    <path id="Path_39" data-name="Path 39" d="M101.663,34.289a3.938,3.938,0,1,1-4.214,3.917,3.809,3.809,0,0,1,1.239-2.776,4.354,4.354,0,0,1,2.975-1.141Zm0,0" transform="translate(-70.429 -34.232)" fill="#e48e66"/>
    <path id="Path_40" data-name="Path 40" d="M33.6,34.07a3.939,3.939,0,1,1-4.214,3.919,3.805,3.805,0,0,1,1.239-2.777A4.353,4.353,0,0,1,33.6,34.07Zm0,0" transform="translate(-21.241 -34.07)" fill="#e48e66"/>
  </g>
  <path id="Path_41" data-name="Path 41" d="M122.5,197.627a2.015,2.015,0,0,1-1.257-.433l-12.557-10a1.742,1.742,0,0,1,0-2.765l12.557-10a2.035,2.035,0,0,1,2.736.2,1.736,1.736,0,0,1-.219,2.56l-10.821,8.621,10.822,8.622a1.742,1.742,0,0,1,.563,2.01,1.939,1.939,0,0,1-1.823,1.187Zm0,0" transform="translate(-78.054 -128.862)" fill="#af593c"/>
  <path id="Path_42" data-name="Path 42" d="M244.65,197.627a1.939,1.939,0,0,1-1.823-1.187,1.742,1.742,0,0,1,.563-2.01l10.821-8.622-10.822-8.621a1.736,1.736,0,0,1-.219-2.56,2.035,2.035,0,0,1,2.736-.2l12.557,10a1.742,1.742,0,0,1,0,2.765l-12.557,10a2.018,2.018,0,0,1-1.256.433Zm0,0" transform="translate(-175.41 -128.862)" fill="#af593c"/>
  <path id="Path_43" data-name="Path 43" d="M183.9,184.417a2,2,0,0,1-1.509-.672,1.733,1.733,0,0,1-.393-1.519l7.828-34.765a1.942,1.942,0,0,1,2.3-1.4,1.821,1.821,0,0,1,1.5,2.151L185.8,182.976A1.915,1.915,0,0,1,183.9,184.417Zm0,0" transform="translate(-131.508 -108.148)" fill="#af593c"/>
</svg>
